<svg xmlns="http://www.w3.org/2000/svg" width="20" height="20" viewBox="0 0 20 20">
  <path id="pen-to-square-regular" d="M17.36,6.089l.476.476a.941.941,0,0,1,0,1.334L16.69,9.049,14.876,7.235l1.146-1.145a.941.941,0,0,1,1.334,0Zm-9.1,7.767,5.283-5.287,1.815,1.815-5.287,5.283a.942.942,0,0,1-.409.24l-2.3.657.657-2.3a.942.942,0,0,1,.24-.409Zm6.428-9.1L6.92,12.517a2.812,2.812,0,0,0-.72,1.224L5.074,17.678a.945.945,0,0,0,1.169,1.169l3.936-1.126A2.844,2.844,0,0,0,11.4,17L19.17,9.238a2.834,2.834,0,0,0,0-4.007l-.476-.476A2.834,2.834,0,0,0,14.687,4.755ZM3.464,6.29A3.464,3.464,0,0,0,0,9.754V20.461a3.464,3.464,0,0,0,3.464,3.464H14.171a3.464,3.464,0,0,0,3.464-3.464V16.052a.945.945,0,0,0-1.889,0v4.409a1.574,1.574,0,0,1-1.575,1.575H3.464a1.574,1.574,0,0,1-1.575-1.575V9.754A1.574,1.574,0,0,1,3.464,8.179H7.873a.945.945,0,1,0,0-1.889Z" transform="translate(0 -3.925)" fill="#66b7f1"/>
</svg>
